<svg viewBox="0 0 17 16" xmlns="http://www.w3.org/2000/svg"><g fill="#ffffff" fill-rule="evenodd" transform="translate(1 2)"><path d="m15.796 6.908-1.562-1.698c-.215-.212-.562-.212-.776 0l-1.564 1.698c-.215.214-.215.559 0 .772h1.294c-.486 1.825-1.918 3.296-3.789 3.79-2.168.572-4.486-.279-5.767-2.119l-1.091.751c1.266 1.819 3.343 2.864 5.498 2.864.565 0 1.137-.072 1.698-.221 2.451-.646 4.303-2.633 4.813-5.065h1.245c.215-.213.215-.558.001-.772z"/><path d="m4.475 6.021c.215-.213.215-.559 0-.772h-1.457c.498-1.801 1.918-3.248 3.771-3.738 2.17-.573 4.486.28 5.766 2.121l1.092-.752c-1.598-2.295-4.486-3.359-7.199-2.645-2.432.643-4.273 2.605-4.8 5.014h-1.452c-.215.214-.215.56 0 .772l1.638 1.637c.214.212.562.212.776 0z"/></g></svg>
